# xmcd CD database file
# Copyright (C) 1995-1998 Ti Kan
#
# Track frame offsets:
#	150
#	10224
#	22130
#	35818
#	50397
#	59716
#	70889
#	81908
#	94261
#	107340
#	118870
#	127297
#	139166
#	152010
#	161914
#	171420
#	185839
#	196912
#	207101
#	222773
#
# Disc length: 3122 seconds
#
# Revision: 0
# Processed by: cddbd v1.4PL0 Copyright (c) Steve Scherf et al.
# Submitted via: CDex 1.30Release
#
DISCID=340c3014
DTITLE=Willie Nelson - My Songs
DYEAR=2002
DGENRE=Country
TTITLE0=Mr Record Man
TTITLE1=Country Willie
TTITLE2=Good Hearted Woman
TTITLE3=Rainy Day Blues
TTITLE4=One Step Beyond
TTITLE5=Did I Ever Love You
TTITLE6=Good Times
TTITLE7=December Day
TTITLE8=I Let My Mind Wander
TTITLE9=Any Old Arms Won't Do
TTITLE10=Local Memory
TTITLE11=Happiness Lives Next Door
TTITLE12=You Made Me Live, Love and Die
TTITLE13=Are You Sure
TTITLE14=Within Your Crowd
TTITLE15=It Could Be Said That Way
TTITLE16=Who Do I Know in Dallas
TTITLE17=I Gotta Get Drunk
TTITLE18=What Can You Do to Me Now
TTITLE19=That's Why I Love Her So
EXTD=\n YEAR: 2002 ID3G:   2
EXTT0=
EXTT1=
EXTT2=
EXTT3=
EXTT4=
EXTT5=
EXTT6=
EXTT7=
EXTT8=
EXTT9=
EXTT10=
EXTT11=
EXTT12=
EXTT13=
EXTT14=
EXTT15=
EXTT16=
EXTT17=
EXTT18=
EXTT19=
PLAYORDER=
